HIERARCHY
ROOT Hips
{
	OFFSET 0.000000 0.000000 0.000000
	CHANNELS 6 Xposition Yposition Zposition Zrotation Yrotation Xrotation 
	JOINT LHipJoint
	{
		OFFSET 0.000000 0.000000 0.000000
		CHANNELS 3 Zrotation Yrotation Xrotation
		JOINT LeftUpLeg
		{
			OFFSET 1.363060 -1.794630 0.839290
			CHANNELS 3 Zrotation Yrotation Xrotation
			JOINT LeftLeg
			{
				OFFSET 2.448110 -6.726130 0.000000
				CHANNELS 3 Zrotation Yrotation Xrotation
				JOINT LeftFoot
				{
					OFFSET 2.562200 -7.039590 0.000000
					CHANNELS 3 Zrotation Yrotation Xrotation
					JOINT LeftToeBase
					{
						OFFSET 0.157640 -0.433110 2.322550
						CHANNELS 3 Zrotation Yrotation Xrotation
						End Site
						{
							OFFSET 0.000000 0.000000 0.000000
						}
					}
				}
			}
		}
	}
	JOINT RHipJoint
	{
		OFFSET 0.000000 0.000000 0.000000
		CHANNELS 3 Zrotation Yrotation Xrotation
		JOINT RightUpLeg
		{
			OFFSET -1.305520 -1.794630 0.839290
			CHANNELS 3 Zrotation Yrotation Xrotation
			JOINT RightLeg
			{
				OFFSET -2.542530 -6.985550 0.000000
				CHANNELS 3 Zrotation Yrotation Xrotation
				JOINT RightFoot
				{
					OFFSET -2.568260 -7.056230 0.000000
					CHANNELS 3 Zrotation Yrotation Xrotation
					JOINT RightToeBase
					{
						OFFSET -0.164730 -0.452590 2.363150
						CHANNELS 3 Zrotation Yrotation Xrotation
						End Site
						{
							OFFSET 0.000000 0.000000 0.000000
						}
					}
				}
			}
		}
	}
	JOINT LowerBack
	{
		OFFSET 0.000000 0.000000 0.000000
		CHANNELS 3 Zrotation Yrotation Xrotation
		JOINT Spine
		{
			OFFSET 0.028270 2.035590 -0.193380
			CHANNELS 3 Zrotation Yrotation Xrotation
			JOINT Spine1
			{
				OFFSET 0.056720 2.048850 -0.042750
				CHANNELS 3 Zrotation Yrotation Xrotation
				JOINT Neck
				{
					OFFSET 0.000000 0.000000 0.000000
					CHANNELS 3 Zrotation Yrotation Xrotation
					JOINT Neck1
					{
						OFFSET -0.054170 1.746240 0.172020
						CHANNELS 3 Zrotation Yrotation Xrotation
						JOINT Head
						{
							OFFSET 0.104070 1.761360 -0.123970
							CHANNELS 3 Zrotation Yrotation Xrotation
							End Site
							{
								OFFSET 0.000000 0.000000 0.000000
							}
						}
					}
				}
				JOINT LeftShoulder
				{
					OFFSET 0.000000 0.000000 0.000000
					CHANNELS 3 Zrotation Yrotation Xrotation
					JOINT LeftArm
					{
						OFFSET 3.362410 1.200890 -0.311210
						CHANNELS 3 Zrotation Yrotation Xrotation
						JOINT LeftForeArm
						{
							OFFSET 4.983000 -0.000000 -0.000000
							CHANNELS 3 Zrotation Yrotation Xrotation
							JOINT LeftHand
							{
								OFFSET 3.483560 -0.000000 -0.000000
								CHANNELS 3 Zrotation Yrotation Xrotation
								JOINT LeftFingerBase
								{
									OFFSET 0.000000 0.000000 0.000000
									CHANNELS 3 Zrotation Yrotation Xrotation
									JOINT LeftHandIndex1
									{
										OFFSET 0.715260 -0.000000 -0.000000
										CHANNELS 3 Zrotation Yrotation Xrotation
										End Site
										{
											OFFSET 0.000000 0.000000 0.000000
										}
									}
								}
								JOINT LThumb
								{
									OFFSET 0.000000 0.000000 0.000000
									CHANNELS 3 Zrotation Yrotation Xrotation
									End Site
									{
										OFFSET 0.000000 0.000000 0.000000
									}
								}
							}
						}
					}
				}
				JOINT RightShoulder
				{
					OFFSET 0.000000 0.000000 0.000000
					CHANNELS 3 Zrotation Yrotation Xrotation
					JOINT RightArm
					{
						OFFSET -3.136600 1.374050 -0.404650
						CHANNELS 3 Zrotation Yrotation Xrotation
						JOINT RightForeArm
						{
							OFFSET -5.241900 -0.000000 -0.000000
							CHANNELS 3 Zrotation Yrotation Xrotation
							JOINT RightHand
							{
								OFFSET -3.444170 -0.000000 -0.000000
								CHANNELS 3 Zrotation Yrotation Xrotation
								JOINT RightFingerBase
								{
									OFFSET 0.000000 0.000000 0.000000
									CHANNELS 3 Zrotation Yrotation Xrotation
									JOINT RightHandIndex1
									{
										OFFSET -0.622530 -0.000000 -0.000000
										CHANNELS 3 Zrotation Yrotation Xrotation
										End Site
										{
											OFFSET 0.000000 0.000000 0.000000
										}
									}
								}
								JOINT RThumb
								{
									OFFSET 0.000000 0.000000 0.000000
									CHANNELS 3 Zrotation Yrotation Xrotation
									End Site
									{
										OFFSET 0.000000 0.000000 0.000000
									}
								}
							}
						}
					}
				}
			}
		}
	}
}
MOTION
Frames: 8
Frame Time: 0.008333
1.663637 16.177850 -3.917766 -170.648232 43.222631 -158.355844 -8.372867 0.474261 -0.307645 -22.190420 10.007602 -55.843899 -2.357990 2.365377 42.155262 3.201453 12.046954 -18.317964 -2.067600 0.000000 -5.329899 12.028553 -3.086247 -2.735799 -5.116357 -19.325644 -2.579242 -0.476318 -2.154316 38.434832 -2.888555 -14.461050 33.961180 -8.592900 -0.000000 -69.874900 -8.908416 0.599735 4.656911 -2.373994 0.979449 -1.727286 -4.460657 0.966987 1.346605 3.288888 -5.740387 -7.303879 -1.865180 -0.137831 -0.087411 0.000000 0.000000 0.000000 -7.279967 12.991240 1.532131 -55.621896 24.182877 -16.570157 -5.750864 -6.580995 -0.031517 -12.532516 6.331602 -0.692317 -0.177911 -0.050456 0.000000 0.000000 0.000000 0.000000 0.000000 0.000000 0.000000 4.629093 -2.272531 2.796362 9.330345 30.763159 9.276220 0.872094 57.055420 0.029759 11.682014 9.954225 1.067107 -0.171839 -0.300327 0.000000 0.000000 0.000000 0.000000 0.000000 0.000000 0.000000 
1.767646 16.171248 -4.083079 -170.740451 42.714366 -158.838895 -8.432344 0.519310 -0.525525 -22.229720 10.595925 -55.022806 -2.374039 2.431353 43.065944 3.106860 11.508340 -19.211872 -2.253000 0.000000 -4.972400 12.050723 -2.919959 -2.892882 -5.452603 -19.634793 -3.343567 -0.542694 -2.290662 41.141612 -3.068426 -16.335828 32.443121 -9.530700 -0.000000 -66.726800 -8.722998 0.463725 4.980208 -2.319577 0.836907 -1.656932 -4.449442 0.829797 1.350105 3.149905 -5.832051 -7.258306 -1.903872 -0.141218 -0.077608 0.000000 0.000000 0.000000 -7.580865 12.792738 1.560772 -56.434535 23.712396 -16.785577 -5.701283 -6.211691 -0.030793 -12.391409 6.327374 -0.683914 -0.174560 -0.049450 0.000000 0.000000 0.000000 0.000000 0.000000 0.000000 0.000000 4.663557 -2.457747 2.743241 8.944855 30.770276 9.107641 0.830599 57.640498 0.029206 11.756914 10.027952 1.082285 -0.177367 -0.301852 0.000000 0.000000 0.000000 0.000000 0.000000 0.000000 0.000000 
1.864922 16.169568 -4.250718 -170.795409 42.162349 -159.242472 -8.515921 0.554555 -0.695851 -22.135380 10.994999 -54.080456 -2.387132 2.468053 43.745932 3.046678 11.105872 -20.128570 -2.440800 0.000000 -4.736800 12.038181 -2.773398 -3.041720 -5.615080 -19.802744 -4.243761 -0.605821 -2.448372 43.782130 -3.194106 -17.711140 30.565131 -10.012800 -0.000001 -64.504700 -8.427092 0.334128 5.245922 -2.241152 0.698520 -1.597490 -4.433919 0.695883 1.366126 2.998254 -5.927411 -7.204872 -1.942175 -0.144725 -0.064423 0.000000 0.000000 0.000000 -7.918513 12.589108 1.592509 -57.239647 23.049488 -16.836068 -5.647475 -5.918068 -0.029959 -12.276580 6.305831 -0.675305 -0.170877 -0.048262 0.000000 0.000000 0.000000 0.000000 0.000000 0.000000 0.000000 4.665623 -2.643517 2.684802 8.719295 30.723565 8.931734 0.794842 58.190136 0.028609 11.817489 10.089464 1.094868 -0.182128 -0.302672 0.000000 0.000000 0.000000 0.000000 0.000000 0.000000 0.000000 
1.956854 16.173788 -4.420079 -170.827590 41.578266 -159.556241 -8.617416 0.580992 -0.812318 -21.928612 11.176187 -53.047139 -2.392391 2.477058 44.206663 3.021955 10.866346 -21.009945 -2.629400 -0.000000 -4.619600 12.000370 -2.645402 -3.166705 -5.600292 -19.804201 -5.315745 -0.669319 -2.619689 46.339685 -3.266729 -18.579716 28.440635 -10.063000 0.000000 -62.966300 -8.054046 0.211927 5.434728 -2.146872 0.566547 -1.552072 -4.415726 0.567371 1.396860 2.854140 -6.041690 -7.148595 -1.978286 -0.148145 -0.049208 0.000000 0.000000 0.000000 -8.271246 12.392452 1.625861 -58.024001 22.209429 -16.675216 -5.590588 -5.758293 -0.029047 -12.205058 6.264328 -0.666890 -0.166793 -0.047037 0.000000 0.000000 0.000000 0.000000 0.000000 0.000000 0.000000 4.652277 -2.842905 2.620814 8.670942 30.634607 8.759465 0.764969 58.697457 0.027971 11.838255 10.146077 1.103057 -0.185605 -0.303052 0.000000 0.000000 0.000000 0.000000 0.000000 0.000000 0.000000 
2.044868 16.184871 -4.590456 -170.851665 40.972406 -159.774816 -8.729052 0.599580 -0.872817 -21.638975 11.128625 -51.952392 -2.386472 2.459333 44.456632 3.030487 10.797501 -21.806172 -2.817900 0.000000 -4.614100 11.946674 -2.532516 -3.251553 -5.411713 -19.610255 -6.575141 -0.733662 -2.793886 48.771989 -3.292870 -19.001371 26.229591 -9.777600 -0.000001 -62.207300 -7.640459 0.099031 5.532310 -2.045358 0.444054 -1.524176 -4.396463 0.447130 1.438728 2.733535 -6.158469 -7.087284 -2.011357 -0.151441 -0.031464 0.000000 0.000000 0.000000 -8.613335 12.201097 1.661011 -58.779679 21.226455 -16.269542 -5.532394 -5.791527 -0.028085 -12.191360 6.201567 -0.659669 -0.162324 -0.045871 0.000000 0.000000 0.000000 0.000000 0.000000 0.000000 0.000000 4.632767 -3.035498 2.553100 8.843409 30.455906 8.583906 0.742540 59.187614 0.027389 11.831788 10.186561 1.106951 -0.187715 -0.302922 0.000000 0.000000 0.000000 0.000000 0.000000 0.000000 0.000000 
2.130433 16.203575 -4.760857 -170.887996 40.353365 -159.905716 -8.841977 0.612527 -0.879490 -21.301461 10.858735 -50.816556 -2.368389 2.415677 44.500585 3.067352 10.888653 -22.479908 -3.004100 -0.000000 -4.709800 11.886266 -2.429623 -3.287552 -5.074850 -19.216651 -8.022084 -0.797491 -2.963328 51.046880 -3.277060 -19.030055 24.042359 -9.248000 0.000000 -62.104401 -7.222422 -0.004321 5.536367 -1.945161 0.332090 -1.513746 -4.379033 0.336317 1.491159 2.652179 -6.285501 -7.024927 -2.041615 -0.154567 -0.012495 0.000000 0.000000 0.000000 -8.921334 12.019093 1.696741 -59.498416 20.127633 -15.588281 -5.474573 -6.069226 -0.027111 -12.246333 6.115128 -0.653641 -0.157522 -0.044881 0.000000 0.000000 0.000000 0.000000 0.000000 0.000000 0.000000 4.628629 -3.227978 2.482682 9.242416 30.192364 8.414198 0.727744 59.659920 0.026874 11.785555 10.218208 1.106051 -0.188186 -0.302481 0.000000 0.000000 0.000000 0.000000 0.000000 0.000000 0.000000 
2.214775 16.230423 -4.930435 -170.952131 39.726830 -159.962071 -8.948102 0.622128 -0.838418 -20.948392 10.390732 -49.650510 -2.339334 2.346903 44.339766 3.125309 11.112166 -23.006714 -3.182900 0.000000 -4.895400 11.826556 -2.331371 -3.272145 -4.628314 -18.635131 -9.639188 -0.858711 -3.122987 53.136271 -3.223166 -18.717498 21.949382 -8.554900 0.000000 -62.136700 -6.830410 -0.098368 5.454374 -1.853665 0.230905 -1.519037 -4.367384 0.235376 1.552306 2.622067 -6.426929 -6.964480 -2.070716 -0.157592 0.006564 0.000000 0.000000 0.000000 -9.175220 11.845596 1.731762 -60.171542 18.944602 -14.613704 -5.418287 -6.633959 -0.026157 -12.373965 6.002910 -0.648606 -0.152475 -0.044170 0.000000 0.000000 0.000000 0.000000 0.000000 0.000000 0.000000 4.663949 -3.424486 2.411190 9.858888 29.848344 8.259460 0.720566 60.114882 0.026413 11.692000 10.249562 1.100455 -0.186878 -0.301883 0.000000 0.000000 0.000000 0.000000 0.000000 0.000000 0.000000 
2.298718 16.265643 -5.098449 -171.051366 39.094962 -159.959496 -9.041920 0.629098 -0.759865 -20.602796 9.764018 -48.455383 -2.302226 2.254036 43.973316 3.195569 11.427880 -23.375771 -3.346000 -0.000000 -5.161300 11.771479 -2.231163 -3.205132 -4.109262 -17.876472 -11.386950 -0.915108 -3.266152 54.990783 -3.143757 -18.175339 20.075603 -7.817000 -0.000001 -62.549200 -6.484054 -0.183466 5.300595 -1.775449 0.140336 -1.538072 -4.364264 0.144268 1.616398 2.644784 -6.566343 -6.903546 -2.099999 -0.160632 0.026006 0.000000 0.000000 0.000000 -9.361911 11.671697 1.766216 -60.790728 17.714143 -13.350072 -5.363667 -7.511627 -0.025236 -12.569351 5.862796 -0.643965 -0.147280 -0.043754 0.000000 0.000000 0.000000 0.000000 0.000000 0.000000 0.000000 4.744732 -3.608001 2.340495 10.702539 29.395890 8.118723 0.721792 60.565177 0.026055 11.566755 10.278708 1.091364 -0.183951 -0.301051 0.000000 0.000000 0.000000 0.000000 0.000000 0.000000 0.000000 
